<?xml version="1.0" encoding="UTF-8"?>
<!DOCTYPE svg PUBLIC "-//W3C//DTD SVG 1.1//EN" "http://www.w3.org/Graphics/SVG/1.1/DTD/svg11.dtd">
<svg xmlns="http://www.w3.org/2000/svg" version="1.1" width="200px" height="200px" style="shape-rendering:geometricPrecision; text-rendering:geometricPrecision; image-rendering:optimizeQuality; fill-rule:evenodd; clip-rule:evenodd" xmlns:xlink="http://www.w3.org/1999/xlink">
<g><path style="opacity:1" fill="#fefefe" d="M -0.5,-0.5 C 66.1667,-0.5 132.833,-0.5 199.5,-0.5C 199.5,66.1667 199.5,132.833 199.5,199.5C 132.833,199.5 66.1667,199.5 -0.5,199.5C -0.5,132.833 -0.5,66.1667 -0.5,-0.5 Z"/></g>
<g><path style="opacity:1" fill="#a5a5a6" d="M 134.5,66.5 C 134.167,66.5 133.833,66.5 133.5,66.5C 133.667,53.4957 133.5,40.4957 133,27.5C 132.368,29.5313 131.201,31.198 129.5,32.5C 128.501,43.8138 128.168,55.1471 128.5,66.5C 128.5,67.1667 128.167,67.5 127.5,67.5C 127.5,56.1667 127.5,44.8333 127.5,33.5C 111.833,33.5 96.1667,33.5 80.5,33.5C 80.5,34.8333 80.5,36.1667 80.5,37.5C 78.1667,37.5 75.8333,37.5 73.5,37.5C 73.3367,35.1432 73.5034,32.8098 74,30.5C 74.5,28.6667 75.6667,27.5 77.5,27C 96.4971,26.5001 115.497,26.3334 134.5,26.5C 134.5,39.8333 134.5,53.1667 134.5,66.5 Z"/></g>
<g><path style="opacity:1" fill="#aad04a" d="M 73.5,37.5 C 75.8333,37.5 78.1667,37.5 80.5,37.5C 81.8333,37.5 83.1667,37.5 84.5,37.5C 84.6661,43.1764 84.4994,48.8431 84,54.5C 83.3103,56.3502 82.1436,57.6836 80.5,58.5C 78.1667,58.5 75.8333,58.5 73.5,58.5C 69.8333,58.5 66.1667,58.5 62.5,58.5C 62.3338,52.4908 62.5005,46.4908 63,40.5C 65.8966,37.7691 69.3966,36.7691 73.5,37.5 Z"/></g>
<g><path style="opacity:1" fill="#1db9c0" d="M 94.5,78.5 C 99.1312,74.3701 103.631,70.0367 108,65.5C 108.635,59.219 105.801,56.719 99.5,58C 95.6464,61.0887 91.6464,63.922 87.5,66.5C 87.3341,61.4889 87.5007,56.4889 88,51.5C 89.1217,49.3762 90.6217,47.5429 92.5,46C 101.827,45.5002 111.161,45.3335 120.5,45.5C 120.666,54.1731 120.5,62.8397 120,71.5C 119.167,75 117,77.1667 113.5,78C 107.175,78.4995 100.842,78.6662 94.5,78.5 Z"/></g>
<g><path style="opacity:1" fill="#ffcd46" d="M 140.5,45.5 C 145.833,45.5 151.167,45.5 156.5,45.5C 156.666,50.5111 156.499,55.5111 156,60.5C 155.167,61.3333 154.333,62.1667 153.5,63C 148.511,63.4993 143.511,63.6659 138.5,63.5C 137.977,57.2819 138.644,51.2819 140.5,45.5 Z"/></g>
<g><path style="opacity:1" fill="#fbfdfd" d="M 102.5,50.5 C 106.833,50.5 111.167,50.5 115.5,50.5C 115.5,54.8333 115.5,59.1667 115.5,63.5C 114.5,63.5 113.5,63.5 112.5,63.5C 112.5,60.1667 112.5,56.8333 112.5,53.5C 109.15,53.665 105.817,53.4983 102.5,53C 101.402,52.2303 101.402,51.397 102.5,50.5 Z"/></g>
<g><path style="opacity:1" fill="#7a7b7c" d="M 133.5,66.5 C 131.833,66.5 130.167,66.5 128.5,66.5C 128.168,55.1471 128.501,43.8138 129.5,32.5C 131.201,31.198 132.368,29.5313 133,27.5C 133.5,40.4957 133.667,53.4957 133.5,66.5 Z"/></g>
<g><path style="opacity:1" fill="#aaabaa" d="M 73.5,58.5 C 75.8333,58.5 78.1667,58.5 80.5,58.5C 82.0408,64.6429 80.0408,68.9763 74.5,71.5C 73.5078,67.2172 73.1744,62.8839 73.5,58.5 Z"/></g>
<g><path style="opacity:1" fill="#12c1f3" d="M 57.5,62.5 C 61.8333,62.5 66.1667,62.5 70.5,62.5C 70.6655,66.5138 70.4988,70.5138 70,74.5C 69.5,75 69,75.5 68.5,76C 64.5138,76.4988 60.5138,76.6655 56.5,76.5C 56.2256,71.737 56.559,67.0704 57.5,62.5 Z"/></g>
<g><path style="opacity:1" fill="#ee4d9a" d="M 128.5,66.5 C 130.167,66.5 131.833,66.5 133.5,66.5C 133.833,66.5 134.167,66.5 134.5,66.5C 138.167,66.5 141.833,66.5 145.5,66.5C 145.92,73.2837 145.42,79.9504 144,86.5C 143.25,87.1258 142.416,87.6258 141.5,88C 135.843,88.4994 130.176,88.6661 124.5,88.5C 124.334,82.1579 124.5,75.8246 125,69.5C 125.708,68.6195 126.542,67.9528 127.5,67.5C 128.167,67.5 128.5,67.1667 128.5,66.5 Z"/></g>
<g><path style="opacity:1" fill="#3c393a" d="M 94.5,78.5 C 92.8624,79.657 91.1957,80.8236 89.5,82C 91.4136,83.4133 92.7469,85.2466 93.5,87.5C 96.1071,88.3184 98.7737,88.8184 101.5,89C 107.195,91.6059 107.862,95.1059 103.5,99.5C 95.2846,103.712 88.6179,109.712 83.5,117.5C 80.1088,120.709 76.1088,122.876 71.5,124C 62.1489,124.832 52.8155,124.665 43.5,123.5C 51.0682,109.111 59.2348,95.1109 68,81.5C 74.0792,75.8858 80.5792,70.8858 87.5,66.5C 91.6464,63.922 95.6464,61.0887 99.5,58C 105.801,56.719 108.635,59.219 108,65.5C 103.631,70.0367 99.1312,74.3701 94.5,78.5 Z"/></g>
<g><path style="opacity:1" fill="#f0f0f0" d="M 85.5,85.5 C 87.8184,85.8184 89.1517,87.1517 89.5,89.5C 88.5893,92.0819 86.9226,94.0819 84.5,95.5C 83.0089,94.6519 82.3422,93.3186 82.5,91.5C 82.4672,88.8984 83.4672,86.8984 85.5,85.5 Z"/></g>
<g><path style="opacity:1" fill="#f8f8f8" d="M 100.5,61.5 C 103.166,61.0658 104.333,62.0658 104,64.5C 96.1873,71.7357 88.1873,78.7357 80,85.5C 77.9675,90.2921 78.3008,94.9588 81,99.5C 81.7247,100.059 82.5581,100.392 83.5,100.5C 87.0052,97.8394 90.6718,95.3394 94.5,93C 96.8333,92.3333 99.1667,92.3333 101.5,93C 101.957,93.414 102.291,93.914 102.5,94.5C 98.9704,97.1955 95.3037,99.6955 91.5,102C 89,105.167 86.5,108.333 84,111.5C 81.408,114.762 78.2413,117.262 74.5,119C 66.2446,120.572 57.9113,120.905 49.5,120C 56.3711,107.086 63.8711,94.5857 72,82.5C 81.6566,75.601 91.1566,68.601 100.5,61.5 Z"/></g>
<g><path style="opacity:1" fill="#575859" d="M 130.5,116.5 C 123.167,116.5 115.833,116.5 108.5,116.5C 110.292,115.691 112.292,115.191 114.5,115C 114.167,114.667 113.833,114.333 113.5,114C 116.046,110.41 118.213,106.577 120,102.5C 120.75,101.874 121.584,101.374 122.5,101C 120.292,100.809 118.292,100.309 116.5,99.5C 119.85,99.665 123.183,99.4983 126.5,99C 127.435,96.6194 127.768,94.1194 127.5,91.5C 129.833,91.5 132.167,91.5 134.5,91.5C 134.666,98.8409 134.5,106.174 134,113.5C 133.578,115.426 132.411,116.426 130.5,116.5 Z"/></g>
<g><path style="opacity:1" fill="#7e7e7f" d="M 103.5,99.5 C 103.833,99.5 104.167,99.5 104.5,99.5C 105.952,100.302 107.618,100.802 109.5,101C 105.984,105.701 102.984,110.701 100.5,116C 103.146,116.497 105.813,116.664 108.5,116.5C 115.833,116.5 123.167,116.5 130.5,116.5C 115.009,117.496 99.3422,117.83 83.5,117.5C 88.6179,109.712 95.2846,103.712 103.5,99.5 Z"/></g>
<g><path style="opacity:1" fill="#6b6c6d" d="M 104.5,99.5 C 108.5,99.5 112.5,99.5 116.5,99.5C 118.292,100.309 120.292,100.809 122.5,101C 121.584,101.374 120.75,101.874 120,102.5C 118.213,106.577 116.046,110.41 113.5,114C 113.833,114.333 114.167,114.667 114.5,115C 112.292,115.191 110.292,115.691 108.5,116.5C 105.813,116.664 103.146,116.497 100.5,116C 102.984,110.701 105.984,105.701 109.5,101C 107.618,100.802 105.952,100.302 104.5,99.5 Z"/></g>
<g><path style="opacity:1" fill="#3e3b3c" d="M 112.5,135.5 C 117.493,135.997 118.493,138.164 115.5,142C 110.382,141.824 109.382,139.658 112.5,135.5 Z"/></g>
<g><path style="opacity:1" fill="#3d3a3b" d="M 141.5,135.5 C 146.328,135.385 147.661,137.552 145.5,142C 140.791,142.082 139.458,139.915 141.5,135.5 Z"/></g>
<g><path style="opacity:1" fill="#7d7b7c" d="M 102.5,145.5 C 104.364,144.207 106.364,144.207 108.5,145.5C 108.376,146.107 108.043,146.44 107.5,146.5C 106.081,145.549 104.415,145.216 102.5,145.5 Z"/></g>
<g><path style="opacity:1" fill="#343132" d="M 111.5,145.5 C 113.167,145.5 114.833,145.5 116.5,145.5C 116.5,151.833 116.5,158.167 116.5,164.5C 114.833,164.5 113.167,164.5 111.5,164.5C 111.5,158.167 111.5,151.833 111.5,145.5 Z"/></g>
<g><path style="opacity:1" fill="#939192" d="M 111.5,145.5 C 113.265,144.539 115.265,144.205 117.5,144.5C 117.824,151.354 117.491,158.021 116.5,164.5C 116.5,158.167 116.5,151.833 116.5,145.5C 114.833,145.5 113.167,145.5 111.5,145.5 Z"/></g>
<g><path style="opacity:1" fill="#8a8789" d="M 146.5,145.5 C 144.833,145.5 143.167,145.5 141.5,145.5C 141.5,151.833 141.5,158.167 141.5,164.5C 143.167,164.5 144.833,164.5 146.5,164.5C 144.735,165.461 142.735,165.795 140.5,165.5C 140.5,158.5 140.5,151.5 140.5,144.5C 142.735,144.205 144.735,144.539 146.5,145.5 Z"/></g>
<g><path style="opacity:1" fill="#353233" d="M 146.5,145.5 C 146.5,151.833 146.5,158.167 146.5,164.5C 144.833,164.5 143.167,164.5 141.5,164.5C 141.5,158.167 141.5,151.833 141.5,145.5C 143.167,145.5 144.833,145.5 146.5,145.5 Z"/></g>
<g><path style="opacity:1" fill="#3b3839" d="M 72.5,144.5 C 85.6438,144.445 89.4772,150.445 84,162.5C 77.8908,167.055 72.5575,166.388 68,160.5C 65.1725,153.851 66.6725,148.518 72.5,144.5 Z"/></g>
<g><path style="opacity:1" fill="#f6f5f5" d="M 74.5,149.5 C 76.7659,149.141 78.5993,149.808 80,151.5C 80.9782,154.669 80.4782,157.503 78.5,160C 76.2992,160.825 74.4659,160.325 73,158.5C 72.068,155.177 72.568,152.177 74.5,149.5 Z"/></g>
<g><path style="opacity:1" fill="#3e3b3c" d="M 34.5,138.5 C 36.924,138.192 39.2573,138.526 41.5,139.5C 43.57,144.209 45.7366,148.876 48,153.5C 50.2634,148.876 52.43,144.209 54.5,139.5C 56.396,138.534 58.396,138.201 60.5,138.5C 61.9239,147.101 62.5906,155.767 62.5,164.5C 60.5,164.5 58.5,164.5 56.5,164.5C 56.6661,158.824 56.4994,153.157 56,147.5C 53.8721,152.05 52.0388,156.717 50.5,161.5C 48.712,161.785 47.0453,161.452 45.5,160.5C 43.9405,156.381 42.1072,152.381 40,148.5C 39.5006,153.823 39.334,159.156 39.5,164.5C 37.5,164.5 35.5,164.5 33.5,164.5C 33.5205,155.818 33.8539,147.152 34.5,138.5 Z"/></g>
<g><path style="opacity:1" fill="#3b3739" d="M 102.5,145.5 C 104.415,145.216 106.081,145.549 107.5,146.5C 105.902,152.367 103.735,158.033 101,163.5C 99,164.833 97,164.833 95,163.5C 92.1254,157.375 89.9587,151.042 88.5,144.5C 90.5,144.5 92.5,144.5 94.5,144.5C 95.5065,148.858 96.6731,153.191 98,157.5C 99.6305,153.429 101.13,149.429 102.5,145.5 Z"/></g>
<g><path style="opacity:1" fill="#3e3b3c" d="M 125.5,144.5 C 128.833,144.5 132.167,144.5 135.5,144.5C 136.149,148.802 134.649,150.135 131,148.5C 129.338,148.388 128.171,149.054 127.5,150.5C 130.36,152.407 133.193,154.407 136,156.5C 137.159,163.342 134.159,166.342 127,165.5C 121.844,166.178 120.344,164.178 122.5,159.5C 125.166,160.738 127.832,160.738 130.5,159.5C 127.351,157.514 124.517,155.181 122,152.5C 121.279,148.946 122.446,146.28 125.5,144.5 Z"/></g>
<g><path style="opacity:1" fill="#3c393a" d="M 154.5,144.5 C 157.833,144.5 161.167,144.5 164.5,144.5C 164.785,146.288 164.452,147.955 163.5,149.5C 161.591,148.652 159.591,148.318 157.5,148.5C 157.33,149.822 157.663,150.989 158.5,152C 161.249,153.123 163.749,154.623 166,156.5C 166.467,162.701 163.467,165.701 157,165.5C 152.742,166.407 150.909,164.741 151.5,160.5C 154.572,160.817 157.572,160.484 160.5,159.5C 157.475,157.893 154.642,155.893 152,153.5C 150.927,149.9 151.76,146.9 154.5,144.5 Z"/></g>
</svg>
