<?xml version="1.0" encoding="UTF-8"?>
<svg version="1.1" xmlns="http://www.w3.org/2000/svg" width="512" height="512">
<path d="M0 0 C0.89877365 -0.00137466 1.7975473 -0.00274933 2.72355652 -0.00416565 C3.69675842 -0.00057037 4.66996033 0.0030249 5.6726532 0.00672913 C6.70726181 0.0065831 7.74187042 0.00643707 8.80783081 0.00628662 C12.22202157 0.00698238 15.63615754 0.01475908 19.05033875 0.02259827 C21.41973847 0.02446364 23.78913857 0.02588698 26.15853882 0.02688599 C32.39085457 0.03070175 38.62314696 0.04052405 44.85545349 0.05158997 C51.21663599 0.06182428 57.57782226 0.06638794 63.93901062 0.07142639 C76.4175365 0.08214713 88.89604505 0.0992123 101.3745575 0.12025452 C101.42096245 13.39433527 101.4564682 26.66839663 101.47818184 39.94254208 C101.48860494 46.10670786 101.50273731 52.27081801 101.5254364 58.43495178 C101.5472172 64.3871776 101.55913721 70.33935002 101.56431198 76.29161263 C101.56799833 78.55891828 101.57519679 80.82622112 101.58601761 83.09350395 C101.60060201 86.27688213 101.60253252 89.4600415 101.60160828 92.64344788 C101.60879883 93.57421646 101.61598938 94.50498505 101.62339783 95.46395874 C101.58597088 107.43030113 98.44500419 117.94032699 90.1870575 126.93275452 C78.51580815 137.60361106 65.4223591 138.47316372 50.30533409 137.96493149 C46.37026943 137.84104473 42.43389883 137.78202323 38.49760437 137.71009827 C33.52633407 137.61461402 28.55730769 137.50098264 23.58818054 137.32484436 C3.39689949 135.62106839 3.39689949 135.62106839 -14.80554199 142.21342468 C-17.37363061 144.67132279 -19.45691956 147.2991472 -21.6254425 150.12025452 C-23.55793994 151.89578708 -25.56022952 153.49614951 -27.6254425 155.12025452 C-27.04536438 155.58173889 -26.46528625 156.04322327 -25.86763 156.51869202 C-17.24958628 163.71461631 -12.42062337 170.99013313 -10.6254425 182.12025452 C-9.60837219 181.90369202 -9.60837219 181.90369202 -8.570755 181.68275452 C6.55643004 178.66569822 21.11414643 179.52844972 34.3745575 188.12025452 C38.76319218 191.98157263 41.89709404 196.24832434 42.6245575 202.14759827 C42.94496633 208.00507236 41.6650936 212.27438463 38.3745575 217.12025452 C35.7495575 219.99525452 35.7495575 219.99525452 33.3745575 222.12025452 C32.7145575 222.78025452 32.0545575 223.44025452 31.3745575 224.12025452 C43.43115232 224.16656545 55.48772603 224.20211743 67.54439163 224.22387886 C73.14259734 224.23432248 78.74074225 224.2484923 84.33891296 224.27113342 C89.7399887 224.29284108 95.1410059 224.30481879 100.54212189 224.310009 C102.60422945 224.31370849 104.66633375 224.32093251 106.72841644 224.33171463 C109.61346394 224.34620184 112.49826862 224.34823361 115.38334656 224.3473053 C116.23858414 224.35449585 117.09382172 224.3616864 117.97497559 224.36909485 C118.76299057 224.36634552 119.55100555 224.36359619 120.36289978 224.36076355 C121.04502659 224.36260714 121.7271534 224.36445072 122.42995071 224.36635017 C124.77602765 224.0694473 126.36680917 223.35723329 128.3745575 222.12025452 C131.06350024 215.61865554 130.62474296 207.90704301 130.4995575 200.99525452 C130.4376825 196.10712952 130.4376825 196.10712952 130.3745575 191.12025452 C139.9445575 191.12025452 149.5145575 191.12025452 159.3745575 191.12025452 C159.44245478 202.69935378 159.49744373 214.27831986 159.52999401 225.85757351 C159.54562001 231.23484152 159.56680224 236.61196573 159.60087585 241.989151 C159.63357867 247.18277453 159.65143356 252.37626013 159.65918922 257.56997871 C159.66471315 259.54702486 159.67549991 261.52406385 159.69174767 263.50105095 C159.71366717 266.27979967 159.71651837 269.05798537 159.71513367 271.83680725 C159.73131241 273.05062073 159.73131241 273.05062073 159.74781799 274.28895569 C159.7042251 282.42453869 157.74200338 289.56355033 152.1245575 295.61634827 C146.10671011 300.78793587 139.45650722 302.27194687 131.71609497 302.21791077 C130.9283782 302.21649865 130.14066142 302.21508654 129.32907444 302.21363163 C126.68070929 302.20790032 124.03242042 302.19520223 121.38407898 302.18275452 C119.48855732 302.17760267 117.59303406 302.17301314 115.69750977 302.16894531 C111.61000248 302.15987198 107.52250915 302.14856671 103.43501091 302.13609314 C96.96726095 302.11815894 90.49957029 302.11617042 84.03179932 302.11854553 C82.39469495 302.11909927 82.39469495 302.11909927 80.72451776 302.11966419 C77.36242153 302.12098207 74.00032547 302.12253956 70.63822937 302.12416077 C56.70862859 302.13087053 42.77940135 302.12606272 28.84989929 302.06898499 C18.69505093 302.02748453 8.54072896 302.0177845 -1.61417526 302.04509544 C-6.98713026 302.05833047 -12.3589944 302.05550947 -17.73182869 302.01405334 C-22.79092412 301.97535183 -27.84826234 301.97887343 -32.9073658 302.01417732 C-34.7592414 302.0197037 -36.61123823 302.0099794 -38.46293259 301.98348808 C-50.45544166 301.67080307 -50.45544166 301.67080307 -60.57110596 307.51039124 C-61.94098121 309.03060542 -63.29471072 310.56566059 -64.6254425 312.12025452 C-66.94997337 314.00212041 -69.37368309 315.67108948 -71.8754425 317.30775452 C-72.51038635 317.72428284 -73.1453302 318.14081116 -73.79951477 318.56996155 C-93.7424713 331.29530241 -113.39528752 332.70960121 -136.3441925 332.51087952 C-138.89964858 332.50340454 -141.45511045 332.49771756 -144.01057434 332.49372864 C-150.00613168 332.48011326 -156.00133081 332.44871883 -161.99674559 332.40833068 C-168.83370336 332.36329397 -175.67067701 332.34154661 -182.5077467 332.32154894 C-196.54714288 332.27997422 -210.58627618 332.20982379 -224.6254425 332.12025452 C-222.47031998 325.53838251 -222.47031998 325.53838251 -220.76997375 322.54603577 C-220.21926208 321.56630798 -220.21926208 321.56630798 -219.65742493 320.56678772 C-219.25499573 319.86255676 -218.85256653 319.15832581 -218.4379425 318.43275452 C-217.53391536 316.82880271 -216.6302959 315.22462107 -215.727005 313.62025452 C-215.23232727 312.74498108 -214.73764954 311.86970764 -214.22798157 310.96791077 C-211.87271031 306.78267555 -209.54879829 302.58022352 -207.22212219 298.37904358 C-200.32645691 285.93157412 -193.3733084 273.51746505 -186.34272766 261.14564514 C-184.50934529 257.91572272 -182.68280857 254.68197385 -180.85591125 251.44837952 C-172.68640274 237.01778876 -164.25627154 222.77056753 -155.59809875 208.62806702 C-152.62096785 203.76492261 -149.68816986 198.87819475 -146.78218079 193.9723053 C-140.73821746 183.78253262 -134.3327281 173.8852047 -127.6254425 164.12025452 C-126.98010559 163.17327698 -126.98010559 163.17327698 -126.32173157 162.20716858 C-123.51644657 158.10545211 -120.62179832 154.08446991 -117.6254425 150.12025452 C-117.19360657 149.54323792 -116.76177063 148.96622131 -116.31684875 148.37171936 C-108.22726752 137.74095445 -98.64536903 130.53232091 -87.6254425 123.12025452 C-85.9953457 122.00480489 -84.36644361 120.88760736 -82.73872375 119.76869202 C-79.52646253 117.56305727 -76.30848209 115.36617064 -73.08638 113.17494202 C-68.11876058 109.78648933 -63.20195029 106.34236674 -58.40254211 102.71888733 C-55.79410404 100.82586611 -53.19688284 99.38510601 -50.28144836 98.01722717 C-45.27189325 95.46392427 -40.88773304 92.8007854 -37.6254425 88.12025452 C-34.76463604 79.01764484 -35.88614428 68.95612147 -36.3129425 59.55775452 C-36.41945653 55.68581277 -36.50154486 51.81468119 -36.56509399 47.94180298 C-36.61180112 45.54352099 -36.6867038 43.14555647 -36.79504395 40.74926758 C-37.15147634 29.57916334 -34.23547764 20.41572007 -26.6254425 12.12025452 C-19.22938279 4.48964746 -10.77529998 -0.01278209 0 0 Z " fill="#343031" transform="translate(242.6254425048828,128.87974548339844)"/>
<path d="M0 0 C0.97207403 -0.00170885 1.94414807 -0.0034177 2.94567889 -0.00517833 C6.20545314 -0.00847462 9.46502191 0.00253289 12.72477722 0.01345825 C15.06046036 0.01402234 17.39614385 0.01370586 19.73182678 0.01257324 C26.07640066 0.01199862 32.42089915 0.02377076 38.76545548 0.03772116 C44.7230542 0.04894515 50.68064997 0.05096689 56.63825782 0.0530249 C68.43745691 0.05740076 80.23662832 0.0707069 92.03581238 0.08963013 C103.49674849 0.10799175 114.95767705 0.12212394 126.41862488 0.13064575 C127.13243311 0.13118175 127.84624134 0.13171774 128.58168012 0.13226998 C134.79090949 0.13689575 141.00013908 0.14120131 147.20936871 0.14547539 C173.94003548 0.16429037 200.67062889 0.20413254 227.40129089 0.24050903 C227.40129089 55.68050903 227.40129089 111.12050903 227.40129089 168.24050903 C242.91129089 168.24050903 258.42129089 168.24050903 274.40129089 168.24050903 C274.56172613 185.34914448 274.56172613 185.34914448 274.59660339 192.68386841 C274.62044593 197.67419608 274.64854564 202.6642281 274.70304871 207.65432739 C274.74674867 211.68087552 274.77047851 215.70710626 274.78079987 219.73387337 C274.7881482 221.26437432 274.80249722 222.79485937 274.82421112 224.32522392 C274.96422524 234.60919387 273.94144293 241.82615886 268.27629089 250.49050903 C259.52421311 258.8620617 250.0976483 258.92626417 238.67472839 258.72879028 C237.0747743 258.71944666 235.47480576 258.71233788 233.87483215 258.70735168 C229.69553541 258.68840331 225.5171292 258.6394109 221.33818054 258.58383179 C217.06116273 258.53237388 212.78399882 258.50978143 208.50675964 258.48464966 C200.13786469 258.43127738 191.76968906 258.3461162 183.40129089 258.24050903 C183.33148316 249.67753247 183.27832459 241.11467673 183.24585438 232.55148506 C183.2302627 228.57435103 183.20914485 224.59741307 183.17497253 220.62039185 C183.14214507 216.77540053 183.12438913 212.93059667 183.11665916 209.08547592 C183.11115728 207.62559945 183.10041454 206.16573212 183.08410072 204.70593643 C182.86220813 184.00919894 182.86220813 184.00919894 190.33879089 176.30300903 C191.00781433 175.5927356 191.67683777 174.88246216 192.36613464 174.15066528 C194.40129089 172.24050903 194.40129089 172.24050903 196.49842453 170.97585583 C198.64061186 169.36970485 198.64061186 169.36970485 198.89348221 166.68493366 C198.88979504 165.6552909 198.88610786 164.62564814 198.88230896 163.56480408 C198.88780762 162.38269852 198.89330627 161.20059296 198.89897156 159.98266602 C198.88459045 158.68434845 198.87020935 157.38603088 198.85539246 156.04837036 C198.85426427 154.66863539 198.85489727 153.28889801 198.85716248 151.90916443 C198.85831172 148.16131796 198.83476902 144.41398195 198.80686665 140.66625428 C198.78188769 136.75049558 198.77951377 132.83472561 198.77476501 128.91889954 C198.76232487 121.50278284 198.72948938 114.08690156 198.68936706 106.6708886 C198.64468151 98.22844944 198.62267043 89.78599912 198.60258532 81.34347117 C198.56075752 63.97568087 198.49038548 46.60811983 198.40129089 29.24050903 C173.84511413 29.19381081 149.28894402 29.15853087 124.73273182 29.13688469 C113.33113942 29.12656734 101.92957459 29.11249823 90.52799988 29.08963013 C80.5916537 29.06971031 70.65532749 29.05679593 60.71896189 29.05233204 C55.45660632 29.04972228 50.19430788 29.04357864 44.9319706 29.02904892 C39.98019313 29.01548728 35.02849639 29.01128353 30.07670212 29.01429367 C28.25822066 29.01374287 26.43973654 29.00975701 24.62127113 29.00209808 C22.1399927 28.99215905 19.65901976 28.99453634 17.17773438 29 C16.45690935 28.99417432 15.73608433 28.98834863 14.99341613 28.98234642 C11.03270041 29.00594593 7.93019737 29.39094684 4.40129089 31.24050903 C2.33257417 34.15955718 2.05384282 36.97485125 1.77629089 40.49050903 C1.59066589 42.84175903 1.59066589 42.84175903 1.40129089 45.24050903 C6.35129089 45.24050903 11.30129089 45.24050903 16.40129089 45.24050903 C16.49192195 54.34230725 16.56519626 63.44380221 16.60853958 72.54595089 C16.62934985 76.7731659 16.65754611 81.00005424 16.70304871 85.2270813 C16.74674255 89.31198365 16.77047726 93.39657322 16.78079987 97.48169136 C16.78814928 99.03452027 16.80250044 100.58733347 16.82421112 102.140028 C16.95291446 111.73240945 16.9042587 120.07484031 10.33097839 127.61550903 C9.65293152 128.15175903 8.97488464 128.68800903 8.27629089 129.24050903 C7.59308777 129.79738403 6.90988464 130.35425903 6.20597839 130.92800903 C4.40129089 132.24050903 4.40129089 132.24050903 2.40129089 133.24050903 C2.48620789 134.37367554 2.57112488 135.50684204 2.65861511 136.67434692 C4.7466297 168.05816972 4.7466297 168.05816972 -0.74079895 176.55886841 C-5.80119393 181.41198342 -11.66045877 184.56286533 -18.14094543 187.15774536 C-20.61503931 188.24770328 -22.45466535 189.61700808 -24.59870911 191.24050903 C-25.25870911 191.24050903 -25.91870911 191.24050903 -26.59870911 191.24050903 C-26.59870911 172.76050903 -26.59870911 154.28050903 -26.59870911 135.24050903 C-42.10870911 135.24050903 -57.61870911 135.24050903 -73.59870911 135.24050903 C-73.79925315 117.92241647 -73.79925315 117.92241647 -73.84284973 110.49050903 C-73.87263851 105.43652816 -73.90772202 100.38300397 -73.97590637 95.32937622 C-74.0305835 91.25093486 -74.06020394 87.17298379 -74.07309532 83.09420395 C-74.08227171 81.54496426 -74.10019014 79.99574874 -74.12735939 78.44672012 C-74.29324571 68.58896643 -73.90310747 59.97538991 -66.84280396 52.34210205 C-58.81255454 44.70863894 -50.77034033 44.84414678 -40.16120911 45.05300903 C-38.85732239 45.06654419 -37.55343567 45.08007935 -36.21003723 45.09402466 C-33.00583289 45.12923569 -29.80248806 45.1784881 -26.59870911 45.24050903 C-26.63798523 44.09219604 -26.63798523 44.09219604 -26.67805481 42.92068481 C-26.78293632 39.40250742 -26.8473241 35.88466021 -26.91120911 32.36550903 C-26.95310364 31.16152466 -26.99499817 29.95754028 -27.03816223 28.71707153 C-27.15726435 19.95115554 -25.94457942 12.87805242 -19.78352356 6.30349731 C-13.665209 0.62758805 -8.07921628 -0.05185924 0 0 Z " fill="#2D2E31" transform="translate(174.5987091064453,50.759490966796875)"/>
<path d="M0 0 C3 1.5 3 1.5 5 4 C5.94745265 10.63216858 5.94745265 10.63216858 3.265625 14.50390625 C1.03878092 16.95727412 -1.2104268 18.95351539 -3.8125 21 C-8.39946782 24.67811382 -12.87994508 28.44980417 -17.3125 32.3125 C-18.5976339 33.43101527 -19.88279026 34.54950472 -21.16796875 35.66796875 C-21.80524902 36.22274902 -22.4425293 36.7775293 -23.09912109 37.34912109 C-31.04526132 44.25019998 -39.06453874 51.06634968 -47.10595703 57.85595703 C-51.08624131 61.21925507 -55.04661042 64.6051467 -59 68 C-62.95397168 71.39535317 -66.91429667 74.78248941 -70.89624023 78.14501953 C-71.9621134 79.04555174 -73.02673919 79.94756251 -74.09008789 80.85107422 C-76.94363301 83.27434702 -79.81526914 85.67098886 -82.71484375 88.0390625 C-93.09193082 96.58680771 -100.44294626 104.48549147 -102.31640625 118.33984375 C-102.63544591 124.85442781 -101.44028508 131.23310401 -100.3125 137.625 C-100.16417725 138.50776611 -100.01585449 139.39053223 -99.86303711 140.30004883 C-98.45125532 147.68448829 -95.36232135 153.27480094 -91.375 159.5625 C-87.29323657 162.03304103 -82.61188267 161.85920006 -78 161 C-72.85239058 158.08772234 -68.49468459 154.12520767 -64 150.3125 C-48.72381364 137.54885521 -34.65092558 127.67144158 -14 129 C-9.71906263 129.93766755 -5.64124327 131.33579902 -3 135 C-3.22956991 137.98958487 -3.57956468 139.55177604 -5.65112305 141.76025391 C-11.84696144 146.29732554 -18.25325673 150.38432826 -24.8125 154.375 C-43.50223201 165.93654857 -57.70832708 178.24670375 -70.83984375 195.8203125 C-74.89435581 201.23044024 -79.21405168 206.38799517 -83.66601562 211.47363281 C-84.56051134 212.49712974 -85.44979687 213.52520206 -86.33398438 214.55761719 C-101.70849527 232.47958354 -121.50900385 245.61672002 -145.44701767 248.27136612 C-151.22861433 248.65900804 -157.00272389 248.57825189 -162.79296875 248.48828125 C-164.60426339 248.47892033 -166.41557095 248.47181981 -168.22688293 248.46684265 C-172.92386745 248.44803016 -177.62004076 248.39916244 -182.31671143 248.34332275 C-187.1374617 248.29156387 -191.95834702 248.2692095 -196.77929688 248.24414062 C-206.18654838 248.19100977 -215.59320595 248.10602279 -225 248 C-223.65073108 243.822976 -222.13135428 240.14772168 -219.98046875 236.31640625 C-219.37710693 235.23593018 -218.77374512 234.1554541 -218.15209961 233.04223633 C-217.1796228 231.31976685 -217.1796228 231.31976685 -216.1875 229.5625 C-215.50815421 228.35137468 -214.82920464 227.14002702 -214.15063477 225.9284668 C-212.43061789 222.86050776 -210.7043132 219.79613683 -208.97631836 216.73266602 C-207.51645206 214.14185053 -206.0632841 211.547287 -204.609375 208.953125 C-197.50952497 196.31055238 -190.2443079 183.76840432 -182.90820312 171.26171875 C-181.23157953 168.39584219 -179.56211686 165.52602003 -177.89628601 162.65386963 C-168.93645193 147.20828961 -159.75747565 131.96041853 -150 117 C-149.5457666 116.29746094 -149.0915332 115.59492188 -148.62353516 114.87109375 C-143.90761147 107.58236179 -138.98003533 100.47657578 -133.8125 93.5 C-133.33731934 92.85305176 -132.86213867 92.20610352 -132.37255859 91.53955078 C-126.44311059 83.65066463 -119.7739119 77.84005593 -111.625 72.3125 C-109.83176916 71.0772033 -108.03880442 69.84152023 -106.24609375 68.60546875 C-105.35776855 67.99622559 -104.46944336 67.38698242 -103.55419922 66.75927734 C-99.90809742 64.24792105 -96.29749132 61.68784838 -92.6875 59.125 C-83.15511915 52.38139581 -73.56195571 45.72532435 -63.97167969 39.06445312 C-59.14609105 35.71207246 -54.3231286 32.35591854 -49.5 29 C-43.56353768 24.86959886 -37.62645913 20.74009177 -31.6875 16.61328125 C-30.13385742 15.53336914 -30.13385742 15.53336914 -28.54882812 14.43164062 C-26.57382216 13.05887863 -24.59857695 11.68646077 -22.62304688 10.31445312 C-21.27823242 9.37956055 -21.27823242 9.37956055 -19.90625 8.42578125 C-19.06175293 7.84062744 -18.21725586 7.25547363 -17.34716797 6.65258789 C-15.23425819 5.16493589 -13.16888246 3.62792788 -11.1015625 2.078125 C-6.89060447 -0.74332295 -4.99097991 -0.72449708 0 0 Z " fill="#FCFCFC" transform="translate(271,197)"/>
<path d="M0 0 C9.57 0 19.14 0 29 0 C29.06789729 11.57909927 29.12288624 23.15806534 29.15543652 34.73731899 C29.17106251 40.114587 29.19224474 45.49171122 29.22631836 50.86889648 C29.25902117 56.06252002 29.27687606 61.25600561 29.28463173 66.4497242 C29.29015566 68.42677035 29.30094241 70.40380933 29.31719017 72.38079643 C29.33910967 75.15954515 29.34196088 77.93773085 29.34057617 80.71655273 C29.351362 81.52576172 29.36214783 82.3349707 29.3732605 83.16870117 C29.32966761 91.30428418 27.36744588 98.44329581 21.75 104.49609375 C15.72597146 109.67299327 9.05960015 111.15065936 1.31221008 111.12025452 C0.12617676 111.12153615 0.12617676 111.12153615 -1.08381683 111.12284368 C-3.74169172 111.12449497 -6.39950394 111.11898283 -9.05737305 111.11352539 C-10.95926919 111.11324342 -12.86116544 111.11340145 -14.76306152 111.1139679 C-19.93421605 111.11425547 -25.1053475 111.10836511 -30.27649665 111.10139394 C-35.67772286 111.09515384 -41.07894957 111.09455608 -46.48017883 111.09336853 C-56.71175699 111.09025716 -66.9433245 111.08204637 -77.17489797 111.07201904 C-88.82166108 111.0608519 -100.46842469 111.05534594 -112.11519182 111.05032361 C-136.07680046 111.0398636 -160.03839963 111.02226789 -184 111 C-183.05106125 109.88766673 -182.10137018 108.77597525 -181.15136719 107.66455078 C-180.62258972 107.04540802 -180.09381226 106.42626526 -179.54901123 105.7883606 C-177.50619887 103.42989794 -175.37983125 101.15492003 -173.25 98.875 C-166.84528937 91.85574442 -161.18970355 84.31946934 -155.546875 76.68359375 C-154.76828125 75.63300781 -153.9896875 74.58242188 -153.1875 73.5 C-152.50042969 72.5615625 -151.81335938 71.623125 -151.10546875 70.65625 C-141.2468276 58.21863222 -127.07632635 49.93128599 -113.6875 41.84765625 C-106.93398569 38.32796735 -106.93398569 38.32796735 -102 33 C-100.80618713 33.00444122 -99.61237427 33.00888245 -98.38238525 33.01345825 C-87.1405079 33.05397385 -75.89864533 33.08396976 -64.65671158 33.10362434 C-58.87690441 33.11406857 -53.0971561 33.12823952 -47.31738281 33.15087891 C-41.74124318 33.17258436 -36.16516024 33.18456381 -30.58898163 33.18975449 C-28.45988828 33.19345436 -26.33079809 33.20067915 -24.20172882 33.21146011 C-21.22328447 33.22594439 -18.24507537 33.22797921 -15.26660156 33.22705078 C-13.94166687 33.23783661 -13.94166687 33.23783661 -12.58996582 33.24884033 C-11.37007965 33.24471634 -11.37007965 33.24471634 -10.12554932 33.24050903 C-9.42129948 33.24235262 -8.71704964 33.24419621 -7.99145889 33.24609566 C-5.61964445 32.95299735 -4.02697873 32.25378277 -2 31 C0.68894275 24.49840103 0.25018546 16.78678849 0.125 9.875 C0.08375 6.61625 0.0425 3.3575 0 0 Z " fill="#2E2F32" transform="translate(373,320)"/>
<path d="M0 0 C0.89877365 -0.00137466 1.7975473 -0.00274933 2.72355652 -0.00416565 C3.69675842 -0.00057037 4.66996033 0.0030249 5.6726532 0.00672913 C7.22456612 0.00651009 7.22456612 0.00651009 8.80783081 0.00628662 C12.22202157 0.00698238 15.63615754 0.01475908 19.05033875 0.02259827 C21.41973847 0.02446364 23.78913857 0.02588698 26.15853882 0.02688599 C32.39085457 0.03070175 38.62314696 0.04052405 44.85545349 0.05158997 C51.21663599 0.06182428 57.57782226 0.06638794 63.93901062 0.07142639 C76.4175365 0.08214713 88.89604505 0.0992123 101.3745575 0.12025452 C101.42096245 13.39433527 101.4564682 26.66839663 101.47818184 39.94254208 C101.48860494 46.10670786 101.50273731 52.27081801 101.5254364 58.43495178 C101.5472172 64.3871776 101.55913721 70.33935002 101.56431198 76.29161263 C101.56799833 78.55891828 101.57519679 80.82622112 101.58601761 83.09350395 C101.60060201 86.27688213 101.60253252 89.4600415 101.60160828 92.64344788 C101.60879883 93.57421646 101.61598938 94.50498505 101.62339783 95.46395874 C101.58597088 107.43030113 98.44500419 117.94032699 90.1870575 126.93275452 C77.88700873 138.17851339 63.52381423 138.42648838 47.76908875 138.31556702 C46.19297466 138.31182836 44.61685822 138.30898543 43.04074097 138.30699158 C38.92920812 138.29942217 34.81782071 138.27983273 30.7063446 138.25758362 C26.49615953 138.23697946 22.28595053 138.22795897 18.07572937 138.21791077 C9.8419393 138.19657925 1.60826658 138.1625261 -6.6254425 138.12025452 C-6.6254425 137.13025452 -6.6254425 136.14025452 -6.6254425 135.12025452 C-4.74653625 133.31556702 -4.74653625 133.31556702 -2.0629425 131.24525452 C2.6230551 127.53851026 7.18654046 123.7376109 11.6870575 119.80775452 C12.96424048 118.6955907 14.24158548 117.58361292 15.51908875 116.47181702 C16.15540222 115.91784241 16.7917157 115.3638678 17.4473114 114.79310608 C20.57785153 112.07579408 23.72539652 109.37844313 26.8745575 106.68275452 C27.42539001 106.21119934 27.97622253 105.73964417 28.54374695 105.25379944 C29.60593538 104.34475403 30.66930373 103.43708523 31.7339325 102.53089905 C32.92005516 101.51104536 34.09590446 100.47920212 35.2651825 99.44007874 C35.88908875 98.88981018 36.512995 98.33954163 37.1558075 97.77259827 C37.72363953 97.26591614 38.29147156 96.75923401 38.87651062 96.23719788 C40.3745575 95.12025452 40.3745575 95.12025452 42.3745575 95.12025452 C42.66072937 94.52986389 42.94690125 93.93947327 43.241745 93.33119202 C44.3745575 91.12025452 44.3745575 91.12025452 46.4995575 87.74525452 C49.4275837 81.80047404 49.30230893 75.57102621 48.3745575 69.12025452 C46.01002377 62.22985546 41.68948056 57.53257349 35.29252625 54.11634827 C28.18931493 51.69155725 20.1793316 51.83733959 13.34208679 55.02919006 C8.96854105 57.45447558 4.94328162 60.4105656 0.8745575 63.30775452 C-1.16058765 64.7387599 -3.19574425 66.16974897 -5.23091125 67.60072327 C-7.3625321 69.10707742 -9.49404061 70.61359056 -11.6254425 72.12025452 C-15.89034857 75.12873072 -20.16317168 78.12581548 -24.4379425 81.12025452 C-25.4279425 81.82045715 -26.4179425 82.52065979 -27.4379425 83.24208069 C-28.35188782 83.88250305 -29.26583313 84.52292542 -30.20747375 85.18275452 C-31.01418518 85.75123108 -31.82089661 86.31970764 -32.65205383 86.90541077 C-34.6254425 88.12025452 -34.6254425 88.12025452 -36.6254425 88.12025452 C-36.71871089 80.8784719 -36.78949218 73.6368218 -36.83269119 66.394557 C-36.85343972 63.03052526 -36.88151842 59.66690872 -36.92720032 56.30311584 C-36.97606954 52.42304296 -36.99849256 48.54354926 -37.0160675 44.66322327 C-37.03671265 43.47319199 -37.05735779 42.28316071 -37.07862854 41.05706787 C-37.08193721 28.56864585 -33.44943525 19.16065295 -24.77778625 10.21400452 C-17.74024776 3.61019106 -9.7155133 -0.01152493 0 0 Z " fill="#00B8C0" transform="translate(242.6254425048828,128.87974548339844)"/>
<path d="M0 0 C0.6935257 -0.00043808 1.38705139 -0.00087616 2.10159302 -0.00132751 C4.36888881 0.00074421 6.63542306 0.02399687 8.90258789 0.04760742 C10.48441667 0.05320917 12.06625068 0.05747653 13.64808655 0.06047058 C17.79263921 0.07187389 21.93687181 0.10130158 26.08129883 0.13458252 C30.31790844 0.16538129 34.55457024 0.17899679 38.79125977 0.1940918 C47.09023406 0.22617614 55.38894918 0.27731711 63.68774414 0.34057617 C63.78072289 9.44232104 63.85164966 18.54390059 63.89499283 27.64601803 C63.91580309 31.87323304 63.94399936 36.10012138 63.98950195 40.32714844 C64.03319579 44.41205079 64.05693051 48.49664036 64.06725311 52.5817585 C64.07460253 54.13458741 64.08895369 55.68740061 64.11066437 57.24009514 C64.23936771 66.83247659 64.19071194 75.17490745 57.61743164 82.71557617 C56.93938477 83.25182617 56.26133789 83.78807617 55.56274414 84.34057617 C54.87954102 84.89745117 54.19633789 85.45432617 53.49243164 86.02807617 C51.68774414 87.34057617 51.68774414 87.34057617 49.68774414 88.34057617 C49.77266113 89.47374268 49.85757813 90.60690918 49.94506836 91.77441406 C52.03308295 123.15823686 52.03308295 123.15823686 46.5456543 131.65893555 C41.48525931 136.51205056 35.62599447 139.66293247 29.14550781 142.2578125 C26.67141394 143.34777041 24.83178789 144.71707522 22.68774414 146.34057617 C22.02774414 146.34057617 21.36774414 146.34057617 20.68774414 146.34057617 C20.68774414 127.86057617 20.68774414 109.38057617 20.68774414 90.34057617 C5.17774414 90.34057617 -10.33225586 90.34057617 -26.31225586 90.34057617 C-26.51279991 73.02248361 -26.51279991 73.02248361 -26.55639648 65.59057617 C-26.58618526 60.5365953 -26.62126877 55.48307111 -26.68945312 50.42944336 C-26.74413025 46.351002 -26.7737507 42.27305093 -26.78664207 38.19427109 C-26.79581847 36.64503139 -26.81373689 35.09581588 -26.84090614 33.54678726 C-27.00679246 23.68903357 -26.61665422 15.07545705 -19.55635071 7.44216919 C-13.85327911 2.02089465 -7.78324418 -0.04162163 0 0 Z " fill="#95CF31" transform="translate(127.312255859375,95.659423828125)"/>
<path d="M0 0 C0.09298658 8.97136005 0.16390942 17.94255229 0.20724869 26.91429043 C0.22805729 31.08097383 0.25625038 35.24732571 0.30175781 39.41381836 C0.34545778 43.44036648 0.36918762 47.46659723 0.37950897 51.49336433 C0.38685731 53.02386529 0.40120633 54.55435034 0.42292023 56.08471489 C0.56293435 66.36868484 -0.45984796 73.58564983 -6.125 82.25 C-14.87707779 90.62155267 -24.30364259 90.68575514 -35.7265625 90.48828125 C-37.32651659 90.47893763 -38.92648514 90.47182885 -40.52645874 90.46684265 C-44.70575548 90.44789427 -48.88416169 90.39890187 -53.06311035 90.34332275 C-57.34012816 90.29186485 -61.61729207 90.26927239 -65.89453125 90.24414062 C-74.2634262 90.19076835 -82.63160184 90.10560717 -91 90 C-91.06980773 81.43702343 -91.1229663 72.87416769 -91.15543652 64.31097603 C-91.17102819 60.333842 -91.19214604 56.35690404 -91.22631836 52.37988281 C-91.25914583 48.5348915 -91.27690176 44.69008764 -91.28463173 40.84496689 C-91.29013361 39.38509042 -91.30087635 37.92522308 -91.31719017 36.4654274 C-91.53778665 15.88958287 -91.53778665 15.88958287 -84.25 8.0625 C-83.61578125 7.35222656 -82.9815625 6.64195312 -82.328125 5.91015625 C-76.34002963 0.99710485 -70.53040177 0.48992865 -63.0625 0.3125 C-61.53411499 0.26234741 -61.53411499 0.26234741 -59.97485352 0.21118164 C-39.99537189 -0.33047743 -19.98453088 -0.08130313 0 0 Z " fill="#FE459D" transform="translate(449,219)"/>
<path d="M0 0 C1.77127007 0.00022659 1.77127007 0.00022659 3.57832336 0.00045776 C4.84306992 0.01078033 6.10781647 0.02110291 7.41088867 0.03173828 C9.36462654 0.03598312 9.36462654 0.03598312 11.35783386 0.04031372 C14.80858127 0.04792381 18.2591584 0.06754943 21.70983887 0.08972168 C25.23581642 0.1102369 28.76182167 0.11932754 32.2878418 0.12939453 C39.19741663 0.15079806 46.10687883 0.18490204 53.01635742 0.22705078 C53.13260332 8.04214937 53.22124959 15.85704252 53.27541828 23.67279053 C53.30142717 27.30268053 53.33666201 30.9319757 53.39355469 34.56152344 C53.44819099 38.06938455 53.47784334 41.57667639 53.49074364 45.08493042 C53.50437357 47.06356605 53.54335647 49.04197507 53.58283997 51.02026367 C53.58509712 58.31587522 53.12482035 63.72687819 48.01635742 69.22705078 C42.97123606 73.6339373 38.83102885 75.35454485 32.16796875 75.34057617 C30.36644096 75.34046288 30.36644096 75.34046288 28.52851868 75.34034729 C26.58310432 75.33260536 26.58310432 75.33260536 24.59838867 75.32470703 C23.25746208 75.32284156 21.91653481 75.32141826 20.5756073 75.32041931 C17.04926669 75.31660434 13.52296738 75.30678277 9.99664307 75.29571533 C6.39710041 75.28547928 2.79755107 75.28091699 -0.80200195 75.27587891 C-7.86256571 75.26515958 -14.92310144 75.2480954 -21.98364258 75.22705078 C-22.07665879 67.67269971 -22.14756696 60.11840864 -22.19089127 52.56361389 C-22.21169366 49.05489759 -22.23987421 45.54657545 -22.28540039 42.03808594 C-22.33750615 37.99687086 -22.35664834 33.95606449 -22.37426758 29.91455078 C-22.39491272 28.66528809 -22.41555786 27.41602539 -22.43682861 26.12890625 C-22.43889161 18.06726502 -21.65794033 12.48496183 -16.23754883 6.20361328 C-15.67938477 5.75759766 -15.1212207 5.31158203 -14.54614258 4.85205078 C-13.99055664 4.39056641 -13.4349707 3.92908203 -12.86254883 3.45361328 C-8.6465845 0.70140372 -4.99500291 -0.02139188 0 0 Z " fill="#FECC28" transform="translate(440.983642578125,128.77294921875)"/>
<path d="M0 0 C0.98071472 0.00015106 1.96142944 0.00030212 2.97186279 0.00045776 C4.54861786 0.01594162 4.54861786 0.01594162 6.15722656 0.03173828 C7.78014618 0.03598312 7.78014618 0.03598312 9.43585205 0.04031372 C12.8899646 0.05150469 16.34381744 0.07660758 19.79785156 0.10205078 C22.14029573 0.11208197 24.48274397 0.12120758 26.82519531 0.12939453 C32.56616927 0.15144049 38.30699186 0.18490744 44.04785156 0.22705078 C44.124257 6.48917782 44.17659993 12.75118349 44.21264648 19.01367188 C44.22768232 21.14164726 44.24811639 23.26959192 44.27416992 25.39746094 C44.31078246 28.46573495 44.32763037 31.53359727 44.34082031 34.60205078 C44.35630417 35.54508057 44.37178802 36.48811035 44.38774109 37.4597168 C44.38929712 43.6423471 44.00616975 49.87666229 39.701828 54.75146484 C35.29613951 58.64312777 31.00316698 60.48557 25.16577148 60.45410156 C23.75487495 60.45387497 23.75487495 60.45387497 22.31547546 60.4536438 C21.31321426 60.44332123 20.31095306 60.43299866 19.27832031 60.42236328 C18.24218094 60.41953339 17.20604156 60.41670349 16.13850403 60.41378784 C12.8373345 60.40261532 9.53643875 60.37751583 6.23535156 60.35205078 C3.99381903 60.34201721 1.75228223 60.33289202 -0.48925781 60.32470703 C-5.97698104 60.30268557 -11.46454517 60.26923699 -16.95214844 60.22705078 C-17.02845376 53.80419559 -17.08085523 47.38145809 -17.11694336 40.95825195 C-17.13199399 38.77493928 -17.15243918 36.59165667 -17.1784668 34.40844727 C-17.21501362 31.26327072 -17.23191242 28.11849529 -17.24511719 24.97314453 C-17.26060104 24.00307968 -17.2760849 23.03301483 -17.29203796 22.03355408 C-17.29380793 14.84391211 -16.35569315 10.0003716 -11.51464844 4.41455078 C-7.66831591 1.13109618 -5.06521762 -0.02610937 0 0 Z " fill="#00C1F4" transform="translate(90.9521484375,199.77294921875)"/>
<path d="M0 0 C1.75397346 0.00848969 1.75397346 0.00848969 3.54338074 0.01715088 C7.272829 0.03951564 11.00131155 0.089715 14.73046875 0.140625 C17.26105382 0.16068975 19.79165397 0.17894055 22.32226562 0.1953125 C28.52116203 0.23938091 34.71949639 0.30629529 40.91796875 0.390625 C41.04477129 7.84690184 41.13232168 15.30290055 41.19262695 22.76000977 C41.21776714 25.2965738 41.25188412 27.83306542 41.29516602 30.36938477 C41.35583536 34.01596951 41.38418449 37.66159632 41.40625 41.30859375 C41.43205643 42.44209763 41.45786285 43.5756015 41.48445129 44.74345398 C41.48757637 53.52086838 41.48757637 53.52086838 38.58276367 56.64575195 C35.91796875 58.390625 35.91796875 58.390625 32.79296875 58.390625 C29.86398799 57.37184909 28.80529319 56.76564903 26.91796875 54.390625 C26.5572052 52.51130676 26.5572052 52.51130676 26.57739258 50.37817383 C26.57773247 49.1772686 26.57773247 49.1772686 26.57807922 47.95210266 C26.59356308 47.09263535 26.60904694 46.23316803 26.625 45.34765625 C26.62924484 44.4640593 26.63348969 43.58046234 26.63786316 42.67008972 C26.65465832 39.84745839 26.69231178 37.02554059 26.73046875 34.203125 C26.74551452 32.28972385 26.75920311 30.37631151 26.77148438 28.46289062 C26.80456456 23.77186041 26.85635245 19.08136369 26.91796875 14.390625 C25.13181152 14.4220459 25.13181152 14.4220459 23.30957031 14.45410156 C18.88911986 14.52653462 14.46872179 14.57243672 10.04785156 14.61035156 C8.1350014 14.63045952 6.22221264 14.65775007 4.30957031 14.69238281 C1.55909064 14.74093749 -1.19057602 14.76360158 -3.94140625 14.78125 C-4.79571228 14.80189514 -5.65001831 14.82254028 -6.5302124 14.84381104 C-12.4532543 14.84604643 -12.4532543 14.84604643 -15.61816406 12.55371094 C-17.63664662 9.57109662 -17.74308519 7.91624602 -17.08203125 4.390625 C-12.54766182 -1.1195263 -6.5379855 -0.11908 0 0 Z " fill="#FAFDFD" transform="translate(282.08203125,149.609375)"/>
<path d="M0 0 C3.50268417 34.45122574 3.50268417 34.45122574 -2.09472656 43.31835938 C-7.14791464 48.1992165 -13.02859834 51.33382108 -19.52636719 53.91723633 C-22.01139388 55.00498735 -23.85001461 56.37001243 -26 58 C-26.66 58 -27.32 58 -28 58 C-28 39.52 -28 21.04 -28 2 C-20.41 1.67 -12.82 1.34 -5 1 C-3 0 -3 0 0 0 Z " fill="#2C2C2F" transform="translate(176,184)"/>
<path d="M0 0 C4.84422368 2.07609586 8.70307345 6.00709257 10.8125 10.875 C11.44584845 18.05294913 11.57883838 21.12778845 7 27 C4.84341609 28.99434928 2.5440638 30.74949028 0.1875 32.5 C-1.06478241 33.45314045 -2.31609556 34.4075558 -3.56640625 35.36328125 C-4.1608252 35.81525879 -4.75524414 36.26723633 -5.36767578 36.73291016 C-7.39790064 38.30886992 -9.33053828 39.97905733 -11.25 41.6875 C-14 44 -14 44 -16 44 C-17.89512817 36.14875474 -19.31587905 28.52529344 -19.4375 20.4375 C-19.45683594 19.15746094 -19.47617188 17.87742187 -19.49609375 16.55859375 C-18.55991408 9.84316319 -14.09537421 5.56804674 -9.0859375 1.359375 C-5.90051263 -0.71651986 -3.67894825 -0.69414118 0 0 Z " fill="#FBFAFA" transform="translate(204,298)"/>
<path d="M0 0 C-1.65863505 4.32504836 -4.871041 7.09418825 -8.125 10.25 C-8.68832031 10.80429687 -9.25164062 11.35859375 -9.83203125 11.9296875 C-11.21686028 13.29104485 -12.60783204 14.64614859 -14 16 C-14.99 15.67 -15.98 15.34 -17 15 C-14.54976242 12.49195282 -12.08852402 9.9949924 -9.625 7.5 C-8.57699219 6.42685547 -8.57699219 6.42685547 -7.5078125 5.33203125 C-6.8375 4.65527344 -6.1671875 3.97851562 -5.4765625 3.28125 C-4.85861816 2.65283203 -4.24067383 2.02441406 -3.60400391 1.37695312 C-2 0 -2 0 0 0 Z " fill="#292526" transform="translate(226,365)"/>
<path d="M0 0 C0.33 0.99 0.66 1.98 1 3 C-1.31 4.98 -3.62 6.96 -6 9 C-6 6 -6 6 -4.6875 4.39453125 C-4.130625 3.87246094 -3.57375 3.35039062 -3 2.8125 C-2.443125 2.28269531 -1.88625 1.75289063 -1.3125 1.20703125 C-0.6628125 0.60955078 -0.6628125 0.60955078 0 0 Z " fill="#2E2A2B" transform="translate(182,289)"/>
</svg>
